<svg xmlns="http://www.w3.org/2000/svg" viewBox="0 0 283 52.5"><title>its</title><rect x="74.49" y="22.17" width="5.25" height="28.08" fill="#1f2f3b"></rect><polygon points="83.08 26.7 92.71 26.7 92.71 50.25 97.95 50.25 97.95 26.7 106.91 26.7 107.78 22.17 83.95 22.17 83.08 26.7" fill="#1f2f3b"></polygon><path d="M135.42,36.6a5.71,5.71,0,0,0-2.13-1.55,14,14,0,0,0-3.27-1l-5.13-.87a8,8,0,0,1-1.73-.41,2.65,2.65,0,0,1-1-.65,2.13,2.13,0,0,1-.47-.95,6.67,6.67,0,0,1-.12-1.38,4.77,4.77,0,0,1,.22-1.58,1.91,1.91,0,0,1,.77-1,3.74,3.74,0,0,1,1.5-.54,16.08,16.08,0,0,1,2.44-.15h3.81c1.35,0,3,0,5,.07l.83-4.45-3-.06-2.33,0h-4.06a19.48,19.48,0,0,0-4.91.53,9,9,0,0,0-3.22,1.5,5.5,5.5,0,0,0-1.77,2.39,8.68,8.68,0,0,0-.56,3.19v.71a12.49,12.49,0,0,0,.3,2.88,5.24,5.24,0,0,0,1.08,2.19A6.26,6.26,0,0,0,119.82,37a13.69,13.69,0,0,0,3.5,1l4.77.79a10.49,10.49,0,0,1,1.83.46,2.62,2.62,0,0,1,1.07.67,2,2,0,0,1,.49,1,7.83,7.83,0,0,1,.12,1.48,5.26,5.26,0,0,1-.22,1.68,1.92,1.92,0,0,1-.83,1,4.14,4.14,0,0,1-1.65.56,19.82,19.82,0,0,1-2.71.15h-4c-.72,0-1.5,0-2.33,0l-2.82-.06-.82,4.46q3.73.07,6,.08h3.81a23.88,23.88,0,0,0,5.14-.47,8.51,8.51,0,0,0,3.34-1.46A5.41,5.41,0,0,0,136.39,46a10,10,0,0,0,.53-3.47v-.63a11.34,11.34,0,0,0-.35-3A5.86,5.86,0,0,0,135.42,36.6Z" fill="#1f2f3b"></path><path d="M156.84,31.18a6.78,6.78,0,0,0-3-1.6,22,22,0,0,0-9,0,6.73,6.73,0,0,0-3,1.6,6.53,6.53,0,0,0-1.72,3,18,18,0,0,0-.53,4.73v2.13a18,18,0,0,0,.53,4.73,6.48,6.48,0,0,0,1.72,3,6.73,6.73,0,0,0,3,1.6,22,22,0,0,0,9,0,6.78,6.78,0,0,0,3-1.6,6.48,6.48,0,0,0,1.72-3,18,18,0,0,0,.53-4.73V38.93a18,18,0,0,0-.53-4.73A6.53,6.53,0,0,0,156.84,31.18Zm-3,10a17.59,17.59,0,0,1-.19,2.92,3.57,3.57,0,0,1-.69,1.69,2.38,2.38,0,0,1-1.38.79,11.12,11.12,0,0,1-2.31.2,11.4,11.4,0,0,1-2.33-.2,2.41,2.41,0,0,1-1.4-.79,3.57,3.57,0,0,1-.69-1.69,17.43,17.43,0,0,1-.2-2.92V38.85a17.78,17.78,0,0,1,.2-2.94,3.56,3.56,0,0,1,.69-1.71,2.41,2.41,0,0,1,1.4-.79,11.4,11.4,0,0,1,2.33-.2,11.12,11.12,0,0,1,2.31.2,2.38,2.38,0,0,1,1.38.79,3.56,3.56,0,0,1,.69,1.71,17.94,17.94,0,0,1,.19,2.94Z" fill="#1f2f3b"></path><rect x="163" y="20.94" width="5.13" height="29.31" fill="#1f2f3b"></rect><path d="M185.87,43a9.08,9.08,0,0,1-.12,1.58,2.13,2.13,0,0,1-.53,1.13,2.62,2.62,0,0,1-1.24.69,8.87,8.87,0,0,1-2.25.23,9.16,9.16,0,0,1-2.27-.23,2.7,2.7,0,0,1-1.26-.69,2.2,2.2,0,0,1-.53-1.13,9.08,9.08,0,0,1-.12-1.58V29.74h-5.13v14a9.23,9.23,0,0,0,.55,3.38,5,5,0,0,0,1.72,2.2,7.56,7.56,0,0,0,2.92,1.23,19.92,19.92,0,0,0,4.12.37q4.74,0,7-1.6T191,43.7v-14h-5.13Z" fill="#1f2f3b"></path><path d="M207,34l.82-4.22h-7.37v-5.6L195.3,25V42.52a17.06,17.06,0,0,0,.35,3.75,4.7,4.7,0,0,0,1.29,2.38,5.13,5.13,0,0,0,2.52,1.25,19.9,19.9,0,0,0,4.08.35h3.2l.83-4.22H203.9a8.63,8.63,0,0,1-1.76-.14,1.83,1.83,0,0,1-1.06-.55,2.31,2.31,0,0,1-.51-1.16,10.35,10.35,0,0,1-.14-1.94V34Z" fill="#1f2f3b"></path><path d="M213.33,21.14a3.34,3.34,0,0,0-2.37.67,2.91,2.91,0,0,0-.67,2.13,2.88,2.88,0,0,0,.67,2.15,4.63,4.63,0,0,0,4.73,0,2.88,2.88,0,0,0,.67-2.15,2.91,2.91,0,0,0-.67-2.13A3.33,3.33,0,0,0,213.33,21.14Z" fill="#1f2f3b"></path><rect x="210.72" y="29.74" width="5.13" height="20.51" fill="#1f2f3b"></rect><path d="M237.11,31.18a6.77,6.77,0,0,0-3-1.6,18.63,18.63,0,0,0-4.49-.47,19,19,0,0,0-4.54.47,6.77,6.77,0,0,0-3,1.6,6.44,6.44,0,0,0-1.71,3,17.54,17.54,0,0,0-.54,4.73v2.13a17.54,17.54,0,0,0,.54,4.73,6.39,6.39,0,0,0,1.71,3,6.77,6.77,0,0,0,3,1.6,19,19,0,0,0,4.54.47,18.63,18.63,0,0,0,4.49-.47,6.77,6.77,0,0,0,3-1.6,6.48,6.48,0,0,0,1.72-3,18,18,0,0,0,.53-4.73V38.93a18,18,0,0,0-.53-4.73A6.53,6.53,0,0,0,237.11,31.18Zm-3,10a16.42,16.42,0,0,1-.2,2.92,3.57,3.57,0,0,1-.69,1.69,2.35,2.35,0,0,1-1.38.79,11,11,0,0,1-2.3.2,11.33,11.33,0,0,1-2.33-.2,2.37,2.37,0,0,1-1.4-.79,3.57,3.57,0,0,1-.69-1.69,17.43,17.43,0,0,1-.2-2.92V38.85a17.78,17.78,0,0,1,.2-2.94,3.56,3.56,0,0,1,.69-1.71,2.37,2.37,0,0,1,1.4-.79,11.33,11.33,0,0,1,2.33-.2,11,11,0,0,1,2.3.2,2.35,2.35,0,0,1,1.38.79,3.56,3.56,0,0,1,.69,1.71,16.75,16.75,0,0,1,.2,2.94Z" fill="#1f2f3b"></path><path d="M259,30.75q-2.24-1.63-7.12-1.64a19.88,19.88,0,0,0-4.22.39,7.68,7.68,0,0,0-2.92,1.25A5,5,0,0,0,243,33a8.85,8.85,0,0,0-.56,3.31v14h5.13V36.92a9.08,9.08,0,0,1,.12-1.58,2.08,2.08,0,0,1,.55-1.12,2.64,2.64,0,0,1,1.28-.67,12.24,12.24,0,0,1,4.62,0,2.52,2.52,0,0,1,1.26.67,2.13,2.13,0,0,1,.53,1.12,9.08,9.08,0,0,1,.12,1.58V50.25h5.13v-14Q261.21,32.39,259,30.75Z" fill="#1f2f3b"></path><path d="M281.38,41.61a4.58,4.58,0,0,0-.9-1.77,4.93,4.93,0,0,0-1.82-1.32,8.71,8.71,0,0,0-2.94-.69l-4.14-.4a4,4,0,0,1-2.11-.57,1.73,1.73,0,0,1-.45-1.32,1.38,1.38,0,0,1,.67-1.32,5.39,5.39,0,0,1,2.41-.38h3l2.27,0,3,.06.79-4.18-5-.06-3.71,0q-4.53,0-6.45,1.56a5.29,5.29,0,0,0-1.91,4.36v.59a7.11,7.11,0,0,0,.29,2,4.66,4.66,0,0,0,1,1.74,5.47,5.47,0,0,0,1.78,1.28,7.47,7.47,0,0,0,2.62.63l4.34.36a3.39,3.39,0,0,1,2,.63,1.86,1.86,0,0,1,.45,1.34,1.64,1.64,0,0,1-.73,1.54,5.93,5.93,0,0,1-2.7.43l-4.1,0c-1.53,0-3,0-4.3-.06l-.79,4.18c.79,0,1.6,0,2.45.06l2.46,0H273q4.43,0,6.51-1.56a5.34,5.34,0,0,0,2.09-4.55v-.6A7.6,7.6,0,0,0,281.38,41.61Z" fill="#1f2f3b"></path><polygon points="72.95 11.42 75.91 11.42 75.91 18.36 78.37 18.36 78.37 11.42 80.92 11.42 81.32 9.35 73.35 9.35 72.95 11.42" fill="#1f2f3b"></polygon><polygon points="89.29 14.9 92.34 14.9 92.34 18.36 94.8 18.36 94.8 9.35 92.34 9.35 92.34 12.74 89.29 12.74 89.29 9.35 86.82 9.35 86.82 18.36 89.29 18.36 89.29 14.9" fill="#1f2f3b"></polygon><polygon points="107.69 16.41 103.2 16.41 103.2 14.76 106.8 14.76 107.16 12.81 103.2 12.81 103.2 11.3 107.25 11.3 107.62 9.35 100.83 9.35 100.83 18.36 107.33 18.36 107.69 16.41" fill="#1f2f3b"></polygon><path d="M31.1,11.36a1.62,1.62,0,0,0,2.29,0L37.3,7.45a1.61,1.61,0,0,0,0-2.28L33.39,1.83a1.61,1.61,0,0,0-2.29,0L27.19,5.17a1.61,1.61,0,0,0,0,2.28Z" fill="#f7941d"></path><path d="M48,13.1a1.26,1.26,0,0,0,1.71.36l2.74-2.16a1.19,1.19,0,0,0,0-1.71L49.75,6.26A1.27,1.27,0,0,0,48,5.9L45.29,8.06a1.21,1.21,0,0,0,0,1.71Z" fill="#f7941d"></path><path d="M14.55,13.46a1.28,1.28,0,0,0,1.72-.36L19,9.77a1.21,1.21,0,0,0,0-1.71L16.27,5.9a1.29,1.29,0,0,0-1.72.36L11.81,9.59a1.21,1.21,0,0,0,0,1.71Z" fill="#f7941d"></path><path d="M62.48,15.22,61.3,13.53a.6.6,0,0,0-.88-.22l-1.18,1.1a.81.81,0,0,0,0,1l1.18,1.69a.6.6,0,0,0,.88.22l1.18-1.1A.81.81,0,0,0,62.48,15.22Z" fill="#f7941d"></path><path d="M3.83,17.15,5,15.5a.79.79,0,0,0,0-1L3.83,13.42c-.24-.22-.62-.12-.86.22L1.82,15.28a.79.79,0,0,0,0,1L3,17.36C3.21,17.58,3.59,17.49,3.83,17.15Z" fill="#f7941d"></path><path d="M61.88,20.25C53.7,16.4,45,15.14,36,14.48c-2.86-.1-4.53-.1-7.45,0-9.17.63-17.56,1.88-25.92,5.74a1,1,0,0,0-.48.86c0,2.06.06,3,.22,4.9a.39.39,0,0,0,.57.35,89.33,89.33,0,0,1,25-5.31.64.64,0,0,1,.7.61q.12,9.45.45,18.91a.67.67,0,0,0,.62.66c2,0,3.24,0,5.2,0a.64.64,0,0,0,.61-.65q.33-9.47.46-18.92a.62.62,0,0,1,.68-.61c8.62.73,16.83,2.11,24.89,5.2a.42.42,0,0,0,.6-.36,45.18,45.18,0,0,0,.25-4.76A1,1,0,0,0,61.88,20.25Z" fill="#f7941d"></path><path d="M8.22,28.21a.48.48,0,0,0-.61-.41c-1.72.51-2.58.79-4.37,1.39a.7.7,0,0,0-.46.71C4,37.18,7.05,43.66,10.28,50.28a1.14,1.14,0,0,0,.89.6H15.3c.24,0,.3-.28.15-.62A123.38,123.38,0,0,1,8.22,28.21Z" fill="#f7941d"></path><path d="M61.14,28.89a105.73,105.73,0,0,0-21.31-4.47.6.6,0,0,0-.64.6c-.06,1.37-.08,2.06-.15,3.44,0,1-.07,1.55-.13,2.59-.07,1.35-.11,2-.19,3.38l0,.75c-.13,2.12-.2,3.18-.36,5.28a.54.54,0,0,0,.47.65c5.88.06,7.54.2,13,.67.26,0,.38.3.27.62-.25.7-.38,1.05-.65,1.76a.82.82,0,0,1-.68.56c-10.83-.61-22.85-.64-33.69-.2-.22,0-.32.28-.22.62.63,2,1,3,1.69,5.11.12.35.37.63.56.63H53.31a1.1,1.1,0,0,0,.86-.59l.72-1.55c.71-1.53,1-2.26,1.68-3.7,1.07-2.43,1.55-3.58,2.4-5.87h0c.25-.65.36-1,.58-1.63a.47.47,0,0,0-.41-.61,131.87,131.87,0,0,0-14.24-2.12.56.56,0,0,1-.41-.68c.11-.8.16-1.2.26-2a.6.6,0,0,1,.6-.57,107.44,107.44,0,0,1,14.6,2.7.6.6,0,0,0,.72-.38,43.49,43.49,0,0,0,1-4.28A.67.67,0,0,0,61.14,28.89Z" fill="#f7941d"></path><path d="M20,32.14c1.63-.17,3-.24,4.81-.35a.59.59,0,0,0,.52-.64c-.11-2-.15-3-.23-5a.56.56,0,0,0-.61-.55c-1.93.16-3.34.26-5.09.51a.6.6,0,0,0-.48.66c.18,1.94.28,2.9.51,4.83A.56.56,0,0,0,20,32.14Z" fill="#f7941d"></path><path d="M17.51,41.58c1.46-.08,2.55-.18,4.09-.23.25,0,.42-.3.36-.66-.32-2.12-.47-2.14-.74-4.27a.63.63,0,0,0-.6-.6c-1.72.14-2.9.29-4.52.49a.51.51,0,0,0-.36.66c.45,1.87.66,2.28,1.18,4C17,41.34,17.27,41.6,17.51,41.58Z" fill="#f7941d"></path><path d="M16,32.1c-.19-1.13-.29-1.7-.45-2.85a.56.56,0,0,0-.62-.51c-1,.19-1.79.31-2.75.53a.6.6,0,0,0-.41.7c.2,1.1.31,1.65.54,2.74a.58.58,0,0,0,.62.49c.94-.17,1.74-.26,2.68-.41A.57.57,0,0,0,16,32.1Z" fill="#f7941d"></path></svg>